<svg width="125" height="46" viewBox="0 0 125 46" fill="none" xmlns="http://www.w3.org/2000/svg">
<path d="M10.9524 25.8057C7.25656 28.4021 4.94182 29.4889 0.47619 30.9151C0.28026 29.8281 0.183341 29.3139 0 28.4821C3.79358 27.3761 5.74355 26.216 9.04762 23.616C9.70225 24.4508 10.1144 24.9295 10.9524 25.8057Z" fill="#39445F"/>
<path d="M14.2857 29.9419C10.5899 32.5383 6.37039 34.8416 1.90476 36.2678C1.70883 35.1808 1.61191 34.6667 1.42857 33.8348C5.22215 32.7288 9.07689 30.5955 12.381 27.9954C13.0356 28.8303 13.4477 29.0657 14.2857 29.9419Z" fill="#39445F"/>
<path d="M14.7619 45.5134H11.9048C13.2826 38.8356 14.4477 36.0012 17.1429 32.3749L19.0476 33.8348C16.7248 37.8004 15.11 40.6163 14.7619 45.5134Z" fill="#39445F"/>
<path d="M21.4286 35.7812C19.1195 39.5252 18.2084 41.7395 17.619 46H20C20.9044 41.4308 21.6739 39.6276 23.3333 37.241L21.4286 35.7812Z" fill="#39445F"/>
<path d="M23.5714 33.1048L25.4762 34.5647C27.5208 32.0045 28.9823 30.8264 32.1429 29.212L31.6667 27.0222C28.1532 28.4861 26.37 29.9822 23.5714 33.1048Z" fill="#39445F"/>
<path d="M27.619 36.2678L29.7619 38.2142C31.2977 36.2658 32.5193 35.4714 34.5238 34.5647L33.5714 32.1316C30.7102 33.5044 29.45 34.4297 27.619 36.2678Z" fill="#39445F"/>
<path d="M20.9524 31.4017L19.0476 29.4553C22.5042 25.7099 24.6093 24.0649 29.7619 21.6695L30.4762 24.1026C26.2913 25.9793 24.2272 27.6219 20.9524 31.4017Z" fill="#39445F"/>
<path d="M9.28571 19.2365L7.61905 17.5334C9.33511 16.0483 9.98216 14.958 10.7143 12.6673L12.8571 13.3972C11.9216 15.858 11.1422 17.1375 9.28571 19.2365Z" fill="#39445F"/>
<path d="M12.8571 23.616L11.1905 21.9128C14.0112 19.4978 14.9546 17.366 15.9524 14.1271L18.0952 14.6137C16.6114 18.4308 15.3807 20.5326 12.8571 23.616Z" fill="#39445F"/>
<path d="M16.4286 27.7522L15 25.8057C18.1059 22.5311 19.334 20.4737 21.1905 15.8302H23.3333C21.9762 20.9019 20.2671 23.6958 16.4286 27.7522Z" fill="#39445F"/>
<path d="M45 19.4798C40.2131 19.0961 37.5954 19.2477 33.0952 20.453L33.5714 22.6427C38.0043 21.6172 40.5065 21.4107 45 21.6695V19.4798Z" fill="#42A7A2"/>
<path d="M44.5238 24.8325C40.4238 24.8033 38.2849 24.9588 35 25.8057L35.4762 27.9954C38.5663 27.152 40.6796 26.9865 44.2857 27.0222L44.5238 24.8325Z" fill="#42A7A2"/>
<path d="M43.5714 30.6718C40.8086 30.2874 39.3463 30.3843 36.9048 31.1584L37.381 33.1048C39.6434 32.524 40.9933 32.4036 43.5714 32.6182V30.6718Z" fill="#42A7A2"/>
<path d="M24.0647 12.2005C24.9362 7.37529 25.0611 4.69906 24.3562 0L22.1754 0.25612C22.7123 4.86816 22.6529 7.43267 21.9334 11.9726L24.0647 12.2005Z" fill="#42A7A2"/>
<path d="M18.9046 11.1596C19.3596 6.99563 19.4308 4.80559 18.9483 1.37893L16.7676 1.63505C17.2669 4.86343 17.2081 7.02847 16.7981 10.6897L18.9046 11.1596Z" fill="#42A7A2"/>
<path d="M13.3204 9.58403C13.982 6.81611 14.0399 5.31979 13.5405 2.75784L11.5965 3.03927C11.9264 5.3991 11.9031 6.78363 11.426 9.38149L13.3204 9.58403Z" fill="#42A7A2"/>
<path d="M54.776 31.5V14.46H66.536V17.532H56.408L58.424 15.444V23.244L56.408 21.66H66.104V24.684H56.408L58.424 23.1V31.5H54.776ZM74.3144 31.788C73.0024 31.788 71.8584 31.516 70.8824 30.972C69.9064 30.412 69.1464 29.628 68.6024 28.62C68.0584 27.612 67.7864 26.428 67.7864 25.068C67.7864 23.708 68.0584 22.532 68.6024 21.54C69.1464 20.532 69.9064 19.748 70.8824 19.188C71.8584 18.628 73.0024 18.348 74.3144 18.348C75.6264 18.348 76.7704 18.628 77.7464 19.188C78.7224 19.748 79.4824 20.532 80.0264 21.54C80.5704 22.532 80.8424 23.708 80.8424 25.068C80.8424 26.428 80.5704 27.612 80.0264 28.62C79.4824 29.628 78.7224 30.412 77.7464 30.972C76.7704 31.516 75.6264 31.788 74.3144 31.788ZM74.3144 29.028C75.2104 29.028 75.9064 28.684 76.4024 27.996C76.8984 27.292 77.1464 26.316 77.1464 25.068C77.1464 23.82 76.8984 22.852 76.4024 22.164C75.9064 21.46 75.2104 21.108 74.3144 21.108C73.4184 21.108 72.7224 21.46 72.2264 22.164C71.7304 22.852 71.4824 23.82 71.4824 25.068C71.4824 26.316 71.7304 27.292 72.2264 27.996C72.7224 28.684 73.4184 29.028 74.3144 29.028ZM90.476 31.788C89.58 31.788 88.796 31.596 88.124 31.212C87.468 30.828 86.956 30.292 86.588 29.604L86.516 31.5H83.084V14.46H86.684V20.46C87.02 19.868 87.516 19.372 88.172 18.972C88.828 18.556 89.596 18.348 90.476 18.348C91.564 18.348 92.508 18.628 93.308 19.188C94.108 19.732 94.724 20.508 95.156 21.516C95.604 22.524 95.828 23.708 95.828 25.068C95.828 26.428 95.604 27.612 95.156 28.62C94.724 29.628 94.108 30.412 93.308 30.972C92.508 31.516 91.564 31.788 90.476 31.788ZM89.468 29.028C90.268 29.028 90.908 28.684 91.388 27.996C91.884 27.292 92.132 26.316 92.132 25.068C92.132 23.82 91.892 22.852 91.412 22.164C90.932 21.46 90.292 21.108 89.492 21.108C88.9 21.108 88.388 21.268 87.956 21.588C87.54 21.892 87.22 22.34 86.996 22.932C86.788 23.524 86.684 24.236 86.684 25.068C86.684 25.884 86.788 26.588 86.996 27.18C87.22 27.772 87.54 28.228 87.956 28.548C88.388 28.868 88.892 29.028 89.468 29.028ZM103.893 31.788C102.581 31.788 101.437 31.516 100.461 30.972C99.4846 30.412 98.7246 29.628 98.1806 28.62C97.6366 27.612 97.3646 26.428 97.3646 25.068C97.3646 23.708 97.6366 22.532 98.1806 21.54C98.7246 20.532 99.4846 19.748 100.461 19.188C101.437 18.628 102.581 18.348 103.893 18.348C105.205 18.348 106.349 18.628 107.325 19.188C108.301 19.748 109.061 20.532 109.605 21.54C110.149 22.532 110.421 23.708 110.421 25.068C110.421 26.428 110.149 27.612 109.605 28.62C109.061 29.628 108.301 30.412 107.325 30.972C106.349 31.516 105.205 31.788 103.893 31.788ZM103.893 29.028C104.789 29.028 105.485 28.684 105.981 27.996C106.477 27.292 106.725 26.316 106.725 25.068C106.725 23.82 106.477 22.852 105.981 22.164C105.485 21.46 104.789 21.108 103.893 21.108C102.997 21.108 102.301 21.46 101.805 22.164C101.309 22.852 101.061 23.82 101.061 25.068C101.061 26.316 101.309 27.292 101.805 27.996C102.301 28.684 102.997 29.028 103.893 29.028ZM118.158 31.788C116.83 31.788 115.718 31.604 114.822 31.236C113.926 30.852 113.238 30.34 112.758 29.7C112.294 29.044 112.03 28.292 111.966 27.444L115.614 27.324C115.726 27.932 115.982 28.404 116.382 28.74C116.782 29.076 117.374 29.244 118.158 29.244C118.798 29.244 119.294 29.14 119.646 28.932C120.014 28.724 120.198 28.404 120.198 27.972C120.198 27.7 120.134 27.476 120.006 27.3C119.878 27.108 119.622 26.948 119.238 26.82C118.87 26.676 118.318 26.548 117.582 26.436C116.222 26.196 115.158 25.916 114.39 25.596C113.622 25.276 113.078 24.86 112.758 24.348C112.438 23.836 112.278 23.212 112.278 22.476C112.278 21.244 112.75 20.252 113.694 19.5C114.654 18.732 116.086 18.348 117.99 18.348C119.206 18.348 120.222 18.54 121.038 18.924C121.87 19.308 122.51 19.836 122.958 20.508C123.422 21.164 123.71 21.916 123.822 22.764L120.198 22.908C120.15 22.492 120.022 22.14 119.814 21.852C119.622 21.548 119.374 21.316 119.07 21.156C118.766 20.98 118.398 20.892 117.966 20.892C117.326 20.892 116.83 21.028 116.478 21.3C116.142 21.556 115.974 21.9 115.974 22.332C115.974 22.652 116.046 22.916 116.19 23.124C116.35 23.316 116.606 23.476 116.958 23.604C117.31 23.732 117.782 23.836 118.374 23.916C119.75 24.108 120.838 24.38 121.638 24.732C122.454 25.068 123.038 25.492 123.39 26.004C123.742 26.516 123.918 27.148 123.918 27.9C123.918 28.732 123.678 29.436 123.198 30.012C122.718 30.588 122.046 31.028 121.182 31.332C120.334 31.636 119.326 31.788 118.158 31.788Z" fill="black"/>
</svg>
